<mxfile host="app.diagrams.net" modified="2022-07-20T09:30:08.504Z" agent="5.0 (Macintosh; Intel Mac OS X 10_15_7) AppleWebKit/537.36 (KHTML, like Gecko) Chrome/103.0.0.0 Safari/537.36" etag="CQFPPZAlVMrC1X8duTgs" version="20.1.2" type="github">
  <diagram id="kgpKYQtTHZ0yAKxKKP6v" name="Page-1">
    <mxGraphModel dx="1123" dy="623" grid="1" gridSize="10" guides="1" tooltips="1" connect="1" arrows="1" fold="1" page="1" pageScale="1" pageWidth="850" pageHeight="1100" math="0" shadow="0">
      <root>
        <mxCell id="0" />
        <mxCell id="1" parent="0" />
        <mxCell id="3nuBFxr9cyL0pnOWT2aG-1" value="app" style="shape=umlLifeline;perimeter=lifelinePerimeter;container=1;collapsible=0;recursiveResize=0;rounded=0;shadow=0;strokeWidth=1;" parent="1" vertex="1">
          <mxGeometry x="140" y="80" width="100" height="480" as="geometry" />
        </mxCell>
        <mxCell id="3nuBFxr9cyL0pnOWT2aG-3" value="dispatch" style="verticalAlign=bottom;startArrow=oval;endArrow=block;startSize=8;shadow=0;strokeWidth=1;" parent="3nuBFxr9cyL0pnOWT2aG-1" edge="1">
          <mxGeometry relative="1" as="geometry">
            <mxPoint x="-15" y="70" as="sourcePoint" />
            <mxPoint x="45" y="70" as="targetPoint" />
          </mxGeometry>
        </mxCell>
        <mxCell id="3nuBFxr9cyL0pnOWT2aG-4" value="" style="points=[];perimeter=orthogonalPerimeter;rounded=0;shadow=0;strokeWidth=1;" parent="3nuBFxr9cyL0pnOWT2aG-1" vertex="1">
          <mxGeometry x="50" y="80" width="10" height="40" as="geometry" />
        </mxCell>
        <mxCell id="3nuBFxr9cyL0pnOWT2aG-5" value="业务服务器" style="shape=umlLifeline;perimeter=lifelinePerimeter;container=1;collapsible=0;recursiveResize=0;rounded=0;shadow=0;strokeWidth=1;" parent="1" vertex="1">
          <mxGeometry x="580" y="80" width="100" height="480" as="geometry" />
        </mxCell>
        <mxCell id="r4U0pBsrPZvv4jCEAkiP-21" value="" style="points=[];perimeter=orthogonalPerimeter;rounded=0;shadow=0;strokeWidth=1;" vertex="1" parent="3nuBFxr9cyL0pnOWT2aG-5">
          <mxGeometry x="50" y="360" width="10" height="40" as="geometry" />
        </mxCell>
        <mxCell id="r4U0pBsrPZvv4jCEAkiP-1" value="链" style="shape=umlLifeline;perimeter=lifelinePerimeter;container=1;collapsible=0;recursiveResize=0;rounded=0;shadow=0;strokeWidth=1;" vertex="1" parent="1">
          <mxGeometry x="800" y="80" width="100" height="480" as="geometry" />
        </mxCell>
        <mxCell id="r4U0pBsrPZvv4jCEAkiP-3" value="nodejs" style="shape=umlLifeline;perimeter=lifelinePerimeter;container=1;collapsible=0;recursiveResize=0;rounded=0;shadow=0;strokeWidth=1;" vertex="1" parent="1">
          <mxGeometry x="360" y="80" width="100" height="480" as="geometry" />
        </mxCell>
        <mxCell id="r4U0pBsrPZvv4jCEAkiP-4" value="" style="points=[];perimeter=orthogonalPerimeter;rounded=0;shadow=0;strokeWidth=1;" vertex="1" parent="r4U0pBsrPZvv4jCEAkiP-3">
          <mxGeometry x="45" y="110" width="10" height="240" as="geometry" />
        </mxCell>
        <mxCell id="r4U0pBsrPZvv4jCEAkiP-7" value="" style="points=[];perimeter=orthogonalPerimeter;rounded=0;shadow=0;strokeWidth=1;" vertex="1" parent="r4U0pBsrPZvv4jCEAkiP-3">
          <mxGeometry x="50" y="120" width="10" height="40" as="geometry" />
        </mxCell>
        <mxCell id="r4U0pBsrPZvv4jCEAkiP-27" value="" style="points=[];perimeter=orthogonalPerimeter;rounded=0;shadow=0;strokeWidth=1;" vertex="1" parent="r4U0pBsrPZvv4jCEAkiP-3">
          <mxGeometry x="45" y="360" width="10" height="40" as="geometry" />
        </mxCell>
        <mxCell id="r4U0pBsrPZvv4jCEAkiP-5" style="edgeStyle=orthogonalEdgeStyle;rounded=0;orthogonalLoop=1;jettySize=auto;html=1;entryX=-0.2;entryY=0.009;entryDx=0;entryDy=0;entryPerimeter=0;" edge="1" parent="1" source="3nuBFxr9cyL0pnOWT2aG-4" target="r4U0pBsrPZvv4jCEAkiP-4">
          <mxGeometry relative="1" as="geometry">
            <Array as="points">
              <mxPoint x="300" y="193" />
              <mxPoint x="300" y="193" />
            </Array>
          </mxGeometry>
        </mxCell>
        <mxCell id="r4U0pBsrPZvv4jCEAkiP-6" value="创建账户" style="text;html=1;strokeColor=none;fillColor=none;align=center;verticalAlign=middle;whiteSpace=wrap;rounded=0;" vertex="1" parent="1">
          <mxGeometry x="260" y="160" width="60" height="30" as="geometry" />
        </mxCell>
        <mxCell id="r4U0pBsrPZvv4jCEAkiP-8" value="生成助记词" style="text;html=1;strokeColor=none;fillColor=none;align=center;verticalAlign=middle;whiteSpace=wrap;rounded=0;" vertex="1" parent="1">
          <mxGeometry x="420" y="205" width="70" height="30" as="geometry" />
        </mxCell>
        <mxCell id="r4U0pBsrPZvv4jCEAkiP-9" value="" style="points=[];perimeter=orthogonalPerimeter;rounded=0;shadow=0;strokeWidth=1;" vertex="1" parent="1">
          <mxGeometry x="410" y="260" width="10" height="40" as="geometry" />
        </mxCell>
        <mxCell id="r4U0pBsrPZvv4jCEAkiP-10" value="助记词生成seed" style="text;html=1;strokeColor=none;fillColor=none;align=center;verticalAlign=middle;whiteSpace=wrap;rounded=0;" vertex="1" parent="1">
          <mxGeometry x="420" y="265" width="70" height="30" as="geometry" />
        </mxCell>
        <mxCell id="r4U0pBsrPZvv4jCEAkiP-11" value="" style="points=[];perimeter=orthogonalPerimeter;rounded=0;shadow=0;strokeWidth=1;" vertex="1" parent="1">
          <mxGeometry x="410" y="320" width="10" height="40" as="geometry" />
        </mxCell>
        <mxCell id="r4U0pBsrPZvv4jCEAkiP-12" value="根据seed生成公私钥" style="text;html=1;strokeColor=none;fillColor=none;align=center;verticalAlign=middle;whiteSpace=wrap;rounded=0;" vertex="1" parent="1">
          <mxGeometry x="420" y="325" width="120" height="30" as="geometry" />
        </mxCell>
        <mxCell id="r4U0pBsrPZvv4jCEAkiP-13" value="" style="points=[];perimeter=orthogonalPerimeter;rounded=0;shadow=0;strokeWidth=1;" vertex="1" parent="1">
          <mxGeometry x="410" y="380" width="10" height="40" as="geometry" />
        </mxCell>
        <mxCell id="r4U0pBsrPZvv4jCEAkiP-17" value="生成钱包地址" style="text;html=1;strokeColor=none;fillColor=none;align=center;verticalAlign=middle;whiteSpace=wrap;rounded=0;" vertex="1" parent="1">
          <mxGeometry x="425" y="385" width="75" height="30" as="geometry" />
        </mxCell>
        <mxCell id="r4U0pBsrPZvv4jCEAkiP-19" value="返回创建结果" style="text;html=1;strokeColor=none;fillColor=none;align=center;verticalAlign=middle;whiteSpace=wrap;rounded=0;" vertex="1" parent="1">
          <mxGeometry x="240" y="480" width="120" height="30" as="geometry" />
        </mxCell>
        <mxCell id="r4U0pBsrPZvv4jCEAkiP-26" value="保存钱包地址、公私钥" style="text;html=1;strokeColor=none;fillColor=none;align=center;verticalAlign=middle;whiteSpace=wrap;rounded=0;" vertex="1" parent="1">
          <mxGeometry x="450" y="415" width="130" height="30" as="geometry" />
        </mxCell>
        <mxCell id="r4U0pBsrPZvv4jCEAkiP-29" style="edgeStyle=orthogonalEdgeStyle;rounded=0;orthogonalLoop=1;jettySize=auto;html=1;entryX=-0.139;entryY=0.046;entryDx=0;entryDy=0;entryPerimeter=0;" edge="1" parent="1" source="r4U0pBsrPZvv4jCEAkiP-27" target="r4U0pBsrPZvv4jCEAkiP-21">
          <mxGeometry relative="1" as="geometry">
            <Array as="points">
              <mxPoint x="480" y="442" />
              <mxPoint x="480" y="442" />
            </Array>
          </mxGeometry>
        </mxCell>
        <mxCell id="r4U0pBsrPZvv4jCEAkiP-30" style="edgeStyle=orthogonalEdgeStyle;rounded=0;orthogonalLoop=1;jettySize=auto;html=1;entryX=1.071;entryY=0.965;entryDx=0;entryDy=0;entryPerimeter=0;dashed=1;" edge="1" parent="1" source="r4U0pBsrPZvv4jCEAkiP-21" target="r4U0pBsrPZvv4jCEAkiP-27">
          <mxGeometry relative="1" as="geometry">
            <Array as="points">
              <mxPoint x="522" y="479" />
            </Array>
          </mxGeometry>
        </mxCell>
        <mxCell id="r4U0pBsrPZvv4jCEAkiP-31" value="保存结果" style="text;html=1;strokeColor=none;fillColor=none;align=center;verticalAlign=middle;whiteSpace=wrap;rounded=0;" vertex="1" parent="1">
          <mxGeometry x="485" y="450" width="60" height="30" as="geometry" />
        </mxCell>
        <mxCell id="r4U0pBsrPZvv4jCEAkiP-32" style="edgeStyle=orthogonalEdgeStyle;rounded=0;orthogonalLoop=1;jettySize=auto;html=1;dashed=1;" edge="1" parent="1" target="3nuBFxr9cyL0pnOWT2aG-1">
          <mxGeometry relative="1" as="geometry">
            <mxPoint x="410" y="510" as="sourcePoint" />
            <Array as="points">
              <mxPoint x="410" y="510" />
            </Array>
          </mxGeometry>
        </mxCell>
        <mxCell id="r4U0pBsrPZvv4jCEAkiP-33" value="app" style="shape=umlLifeline;perimeter=lifelinePerimeter;container=1;collapsible=0;recursiveResize=0;rounded=0;shadow=0;strokeWidth=1;" vertex="1" parent="1">
          <mxGeometry x="135" y="640" width="100" height="480" as="geometry" />
        </mxCell>
        <mxCell id="r4U0pBsrPZvv4jCEAkiP-34" value="发起交易" style="verticalAlign=bottom;startArrow=oval;endArrow=block;startSize=8;shadow=0;strokeWidth=1;" edge="1" parent="r4U0pBsrPZvv4jCEAkiP-33">
          <mxGeometry relative="1" as="geometry">
            <mxPoint x="-15" y="70" as="sourcePoint" />
            <mxPoint x="45" y="70" as="targetPoint" />
          </mxGeometry>
        </mxCell>
        <mxCell id="r4U0pBsrPZvv4jCEAkiP-35" value="" style="points=[];perimeter=orthogonalPerimeter;rounded=0;shadow=0;strokeWidth=1;" vertex="1" parent="r4U0pBsrPZvv4jCEAkiP-33">
          <mxGeometry x="50" y="69" width="10" height="41" as="geometry" />
        </mxCell>
        <mxCell id="r4U0pBsrPZvv4jCEAkiP-36" value="业务服务器" style="shape=umlLifeline;perimeter=lifelinePerimeter;container=1;collapsible=0;recursiveResize=0;rounded=0;shadow=0;strokeWidth=1;" vertex="1" parent="1">
          <mxGeometry x="800" y="640" width="100" height="480" as="geometry" />
        </mxCell>
        <mxCell id="r4U0pBsrPZvv4jCEAkiP-57" value="" style="points=[];perimeter=orthogonalPerimeter;rounded=0;shadow=0;strokeWidth=1;" vertex="1" parent="r4U0pBsrPZvv4jCEAkiP-36">
          <mxGeometry x="50" y="300" width="10" height="40" as="geometry" />
        </mxCell>
        <mxCell id="r4U0pBsrPZvv4jCEAkiP-38" value="链" style="shape=umlLifeline;perimeter=lifelinePerimeter;container=1;collapsible=0;recursiveResize=0;rounded=0;shadow=0;strokeWidth=1;" vertex="1" parent="1">
          <mxGeometry x="580" y="640" width="100" height="480" as="geometry" />
        </mxCell>
        <mxCell id="r4U0pBsrPZvv4jCEAkiP-44" value="" style="points=[];perimeter=orthogonalPerimeter;rounded=0;shadow=0;strokeWidth=1;" vertex="1" parent="r4U0pBsrPZvv4jCEAkiP-38">
          <mxGeometry x="45" y="120" width="10" height="41" as="geometry" />
        </mxCell>
        <mxCell id="r4U0pBsrPZvv4jCEAkiP-46" value="" style="points=[];perimeter=orthogonalPerimeter;rounded=0;shadow=0;strokeWidth=1;" vertex="1" parent="r4U0pBsrPZvv4jCEAkiP-38">
          <mxGeometry x="45" y="170" width="10" height="40" as="geometry" />
        </mxCell>
        <mxCell id="r4U0pBsrPZvv4jCEAkiP-74" value="" style="points=[];perimeter=orthogonalPerimeter;rounded=0;shadow=0;strokeWidth=1;" vertex="1" parent="r4U0pBsrPZvv4jCEAkiP-38">
          <mxGeometry x="45" y="440" width="10" height="40" as="geometry" />
        </mxCell>
        <mxCell id="r4U0pBsrPZvv4jCEAkiP-39" value="nodejs" style="shape=umlLifeline;perimeter=lifelinePerimeter;container=1;collapsible=0;recursiveResize=0;rounded=0;shadow=0;strokeWidth=1;" vertex="1" parent="1">
          <mxGeometry x="355" y="640" width="100" height="490" as="geometry" />
        </mxCell>
        <mxCell id="r4U0pBsrPZvv4jCEAkiP-43" value="" style="points=[];perimeter=orthogonalPerimeter;rounded=0;shadow=0;strokeWidth=1;" vertex="1" parent="r4U0pBsrPZvv4jCEAkiP-39">
          <mxGeometry x="50" y="109" width="10" height="111" as="geometry" />
        </mxCell>
        <mxCell id="r4U0pBsrPZvv4jCEAkiP-55" value="" style="points=[];perimeter=orthogonalPerimeter;rounded=0;shadow=0;strokeWidth=1;" vertex="1" parent="r4U0pBsrPZvv4jCEAkiP-39">
          <mxGeometry x="45" y="240" width="10" height="110" as="geometry" />
        </mxCell>
        <mxCell id="r4U0pBsrPZvv4jCEAkiP-63" value="" style="points=[];perimeter=orthogonalPerimeter;rounded=0;shadow=0;strokeWidth=1;" vertex="1" parent="r4U0pBsrPZvv4jCEAkiP-39">
          <mxGeometry x="55" y="250" width="10" height="40" as="geometry" />
        </mxCell>
        <mxCell id="r4U0pBsrPZvv4jCEAkiP-66" value="" style="points=[];perimeter=orthogonalPerimeter;rounded=0;shadow=0;strokeWidth=1;" vertex="1" parent="r4U0pBsrPZvv4jCEAkiP-39">
          <mxGeometry x="45" y="370" width="10" height="120" as="geometry" />
        </mxCell>
        <mxCell id="r4U0pBsrPZvv4jCEAkiP-67" value="" style="points=[];perimeter=orthogonalPerimeter;rounded=0;shadow=0;strokeWidth=1;" vertex="1" parent="r4U0pBsrPZvv4jCEAkiP-39">
          <mxGeometry x="55" y="380" width="10" height="40" as="geometry" />
        </mxCell>
        <mxCell id="r4U0pBsrPZvv4jCEAkiP-72" value="" style="points=[];perimeter=orthogonalPerimeter;rounded=0;shadow=0;strokeWidth=1;" vertex="1" parent="r4U0pBsrPZvv4jCEAkiP-39">
          <mxGeometry x="55" y="440" width="10" height="40" as="geometry" />
        </mxCell>
        <mxCell id="r4U0pBsrPZvv4jCEAkiP-45" value="查询合约地址" style="text;html=1;align=center;verticalAlign=middle;resizable=0;points=[];autosize=1;strokeColor=none;fillColor=none;" vertex="1" parent="1">
          <mxGeometry x="640" y="770" width="100" height="30" as="geometry" />
        </mxCell>
        <mxCell id="r4U0pBsrPZvv4jCEAkiP-47" style="edgeStyle=orthogonalEdgeStyle;rounded=0;orthogonalLoop=1;jettySize=auto;html=1;entryX=-0.026;entryY=0.029;entryDx=0;entryDy=0;entryPerimeter=0;" edge="1" parent="1" source="r4U0pBsrPZvv4jCEAkiP-43" target="r4U0pBsrPZvv4jCEAkiP-44">
          <mxGeometry relative="1" as="geometry">
            <Array as="points">
              <mxPoint x="470" y="761" />
              <mxPoint x="470" y="761" />
            </Array>
          </mxGeometry>
        </mxCell>
        <mxCell id="r4U0pBsrPZvv4jCEAkiP-48" style="edgeStyle=orthogonalEdgeStyle;rounded=0;orthogonalLoop=1;jettySize=auto;html=1;entryX=0.942;entryY=0.9;entryDx=0;entryDy=0;entryPerimeter=0;dashed=1;" edge="1" parent="1" source="r4U0pBsrPZvv4jCEAkiP-46" target="r4U0pBsrPZvv4jCEAkiP-43">
          <mxGeometry relative="1" as="geometry">
            <Array as="points">
              <mxPoint x="570" y="849" />
              <mxPoint x="570" y="849" />
            </Array>
          </mxGeometry>
        </mxCell>
        <mxCell id="r4U0pBsrPZvv4jCEAkiP-49" value="查询余额" style="text;html=1;align=center;verticalAlign=middle;resizable=0;points=[];autosize=1;strokeColor=none;fillColor=none;" vertex="1" parent="1">
          <mxGeometry x="655" y="820" width="70" height="30" as="geometry" />
        </mxCell>
        <mxCell id="r4U0pBsrPZvv4jCEAkiP-52" style="edgeStyle=orthogonalEdgeStyle;rounded=0;orthogonalLoop=1;jettySize=auto;html=1;entryX=0.478;entryY=0.228;entryDx=0;entryDy=0;entryPerimeter=0;" edge="1" parent="1" source="r4U0pBsrPZvv4jCEAkiP-35" target="r4U0pBsrPZvv4jCEAkiP-39">
          <mxGeometry relative="1" as="geometry">
            <Array as="points">
              <mxPoint x="190" y="752" />
            </Array>
          </mxGeometry>
        </mxCell>
        <mxCell id="r4U0pBsrPZvv4jCEAkiP-53" value="发起交易" style="text;html=1;align=center;verticalAlign=middle;resizable=0;points=[];autosize=1;strokeColor=none;fillColor=none;" vertex="1" parent="1">
          <mxGeometry x="250" y="720" width="70" height="30" as="geometry" />
        </mxCell>
        <mxCell id="r4U0pBsrPZvv4jCEAkiP-54" value="账户地址" style="text;html=1;align=center;verticalAlign=middle;resizable=0;points=[];autosize=1;strokeColor=none;fillColor=none;" vertex="1" parent="1">
          <mxGeometry x="480" y="730" width="70" height="30" as="geometry" />
        </mxCell>
        <mxCell id="r4U0pBsrPZvv4jCEAkiP-56" value="判断余额等是否符合要求" style="text;html=1;align=center;verticalAlign=middle;resizable=0;points=[];autosize=1;strokeColor=none;fillColor=none;" vertex="1" parent="1">
          <mxGeometry x="414" y="894" width="160" height="30" as="geometry" />
        </mxCell>
        <mxCell id="r4U0pBsrPZvv4jCEAkiP-61" value="查询私钥" style="text;html=1;align=center;verticalAlign=middle;resizable=0;points=[];autosize=1;strokeColor=none;fillColor=none;" vertex="1" parent="1">
          <mxGeometry x="715" y="910" width="70" height="30" as="geometry" />
        </mxCell>
        <mxCell id="r4U0pBsrPZvv4jCEAkiP-62" style="edgeStyle=orthogonalEdgeStyle;rounded=0;orthogonalLoop=1;jettySize=auto;html=1;entryX=-0.332;entryY=0.03;entryDx=0;entryDy=0;entryPerimeter=0;" edge="1" parent="1" source="r4U0pBsrPZvv4jCEAkiP-55" target="r4U0pBsrPZvv4jCEAkiP-57">
          <mxGeometry relative="1" as="geometry">
            <Array as="points">
              <mxPoint x="520" y="941" />
              <mxPoint x="520" y="941" />
            </Array>
          </mxGeometry>
        </mxCell>
        <mxCell id="r4U0pBsrPZvv4jCEAkiP-64" style="edgeStyle=orthogonalEdgeStyle;rounded=0;orthogonalLoop=1;jettySize=auto;html=1;entryX=1;entryY=0.909;entryDx=0;entryDy=0;entryPerimeter=0;dashed=1;" edge="1" parent="1" source="r4U0pBsrPZvv4jCEAkiP-57" target="r4U0pBsrPZvv4jCEAkiP-55">
          <mxGeometry relative="1" as="geometry">
            <Array as="points">
              <mxPoint x="740" y="980" />
              <mxPoint x="740" y="980" />
            </Array>
          </mxGeometry>
        </mxCell>
        <mxCell id="r4U0pBsrPZvv4jCEAkiP-65" value="返回私钥" style="text;html=1;align=center;verticalAlign=middle;resizable=0;points=[];autosize=1;strokeColor=none;fillColor=none;" vertex="1" parent="1">
          <mxGeometry x="490" y="950" width="70" height="30" as="geometry" />
        </mxCell>
        <mxCell id="r4U0pBsrPZvv4jCEAkiP-69" style="edgeStyle=orthogonalEdgeStyle;rounded=0;orthogonalLoop=1;jettySize=auto;html=1;entryX=-0.09;entryY=0.038;entryDx=0;entryDy=0;entryPerimeter=0;" edge="1" parent="1" source="r4U0pBsrPZvv4jCEAkiP-67">
          <mxGeometry relative="1" as="geometry">
            <mxPoint x="624.0999999999999" y="1021.5200000000002" as="targetPoint" />
            <Array as="points">
              <mxPoint x="522" y="1022" />
            </Array>
          </mxGeometry>
        </mxCell>
        <mxCell id="r4U0pBsrPZvv4jCEAkiP-70" style="edgeStyle=orthogonalEdgeStyle;rounded=0;orthogonalLoop=1;jettySize=auto;html=1;entryX=1.281;entryY=0.941;entryDx=0;entryDy=0;entryPerimeter=0;dashed=1;" edge="1" parent="1" target="r4U0pBsrPZvv4jCEAkiP-67">
          <mxGeometry relative="1" as="geometry">
            <mxPoint x="625" y="1057.5806451612902" as="sourcePoint" />
            <Array as="points">
              <mxPoint x="522" y="1058" />
            </Array>
          </mxGeometry>
        </mxCell>
        <mxCell id="r4U0pBsrPZvv4jCEAkiP-71" value="解锁钱包" style="text;html=1;align=center;verticalAlign=middle;resizable=0;points=[];autosize=1;strokeColor=none;fillColor=none;" vertex="1" parent="1">
          <mxGeometry x="490" y="990" width="70" height="30" as="geometry" />
        </mxCell>
        <mxCell id="r4U0pBsrPZvv4jCEAkiP-73" value="" style="points=[];perimeter=orthogonalPerimeter;rounded=0;shadow=0;strokeWidth=1;" vertex="1" parent="1">
          <mxGeometry x="625" y="1020" width="10" height="40" as="geometry" />
        </mxCell>
        <mxCell id="r4U0pBsrPZvv4jCEAkiP-75" style="edgeStyle=orthogonalEdgeStyle;rounded=0;orthogonalLoop=1;jettySize=auto;html=1;entryX=-0.09;entryY=0.038;entryDx=0;entryDy=0;entryPerimeter=0;" edge="1" parent="1" source="r4U0pBsrPZvv4jCEAkiP-72" target="r4U0pBsrPZvv4jCEAkiP-74">
          <mxGeometry relative="1" as="geometry">
            <Array as="points">
              <mxPoint x="522" y="1082" />
            </Array>
          </mxGeometry>
        </mxCell>
        <mxCell id="r4U0pBsrPZvv4jCEAkiP-76" style="edgeStyle=orthogonalEdgeStyle;rounded=0;orthogonalLoop=1;jettySize=auto;html=1;entryX=1;entryY=1;entryDx=0;entryDy=0;entryPerimeter=0;dashed=1;" edge="1" parent="1" source="r4U0pBsrPZvv4jCEAkiP-74" target="r4U0pBsrPZvv4jCEAkiP-72">
          <mxGeometry relative="1" as="geometry">
            <Array as="points">
              <mxPoint x="570" y="1120" />
              <mxPoint x="570" y="1120" />
            </Array>
          </mxGeometry>
        </mxCell>
        <mxCell id="r4U0pBsrPZvv4jCEAkiP-77" value="调用合约" style="text;html=1;align=center;verticalAlign=middle;resizable=0;points=[];autosize=1;strokeColor=none;fillColor=none;" vertex="1" parent="1">
          <mxGeometry x="490" y="1055" width="70" height="30" as="geometry" />
        </mxCell>
        <mxCell id="r4U0pBsrPZvv4jCEAkiP-80" style="edgeStyle=orthogonalEdgeStyle;rounded=0;orthogonalLoop=1;jettySize=auto;html=1;entryX=0.517;entryY=0.995;entryDx=0;entryDy=0;entryPerimeter=0;dashed=1;" edge="1" parent="1" source="r4U0pBsrPZvv4jCEAkiP-66" target="r4U0pBsrPZvv4jCEAkiP-33">
          <mxGeometry relative="1" as="geometry">
            <Array as="points">
              <mxPoint x="318" y="1118" />
            </Array>
          </mxGeometry>
        </mxCell>
        <mxCell id="r4U0pBsrPZvv4jCEAkiP-81" value="交易完成" style="text;html=1;align=center;verticalAlign=middle;resizable=0;points=[];autosize=1;strokeColor=none;fillColor=none;" vertex="1" parent="1">
          <mxGeometry x="260" y="1090" width="70" height="30" as="geometry" />
        </mxCell>
      </root>
    </mxGraphModel>
  </diagram>
</mxfile>
